<svg width="322" height="178" viewBox="0 0 322 178" fill="none" xmlns="http://www.w3.org/2000/svg">
<rect width="322" height="178" fill="#F5F5F5"/>
<rect y="56" width="212" height="122" fill="#008000"/>
<rect x="47" width="217" height="104" fill="#008000"/>
<path d="M95.2869 41.8182C95.223 41.2784 94.9638 40.8594 94.5092 40.5611C94.0547 40.2628 93.4972 40.1136 92.8366 40.1136C92.3537 40.1136 91.9311 40.1918 91.5689 40.348C91.2102 40.5043 90.9297 40.7191 90.7273 40.9925C90.5284 41.266 90.429 41.5767 90.429 41.9247C90.429 42.2159 90.4982 42.4663 90.6367 42.6758C90.7788 42.8817 90.9599 43.054 91.18 43.1925C91.4002 43.3274 91.631 43.4393 91.8725 43.5281C92.114 43.6133 92.3359 43.6825 92.5384 43.7358L93.6463 44.0341C93.9304 44.1087 94.2464 44.2116 94.5945 44.343C94.946 44.4744 95.2816 44.6538 95.6012 44.881C95.9244 45.1048 96.1907 45.3924 96.4002 45.744C96.6097 46.0955 96.7145 46.527 96.7145 47.0384C96.7145 47.6278 96.56 48.1605 96.2511 48.6364C95.9457 49.1122 95.4982 49.4904 94.9087 49.771C94.3228 50.0515 93.6108 50.1918 92.7727 50.1918C91.9915 50.1918 91.315 50.0657 90.7433 49.8136C90.1751 49.5614 89.7276 49.2099 89.4009 48.7589C89.0778 48.3079 88.8949 47.7841 88.8523 47.1875H90.2159C90.2514 47.5994 90.3899 47.9403 90.6314 48.2102C90.8764 48.4766 91.1854 48.6754 91.5582 48.8068C91.9347 48.9347 92.3395 48.9986 92.7727 48.9986C93.277 48.9986 93.7298 48.9169 94.131 48.7536C94.5323 48.5866 94.8501 48.3558 95.0845 48.0611C95.3189 47.7628 95.4361 47.4148 95.4361 47.017C95.4361 46.6548 95.3349 46.3601 95.1325 46.1328C94.93 45.9055 94.6637 45.7209 94.3335 45.5788C94.0032 45.4368 93.6463 45.3125 93.2628 45.206L91.9205 44.8224C91.0682 44.5774 90.3935 44.2276 89.8963 43.7731C89.3991 43.3185 89.1506 42.7237 89.1506 41.9886C89.1506 41.3778 89.3157 40.8452 89.646 40.3906C89.9798 39.9325 90.4272 39.5774 90.9883 39.3253C91.5529 39.0696 92.1832 38.9418 92.8793 38.9418C93.5824 38.9418 94.2074 39.0678 94.7543 39.32C95.3011 39.5685 95.7344 39.9094 96.054 40.3427C96.3771 40.7759 96.5476 41.2678 96.5653 41.8182H95.2869ZM102.274 41.8182V42.8835H98.0342V41.8182H102.274ZM99.27 39.858H100.527V47.6562C100.527 48.0114 100.579 48.2777 100.682 48.4553C100.788 48.6293 100.923 48.7464 101.086 48.8068C101.253 48.8636 101.429 48.892 101.614 48.892C101.752 48.892 101.866 48.8849 101.955 48.8707C102.043 48.853 102.114 48.8388 102.168 48.8281L102.423 49.9574C102.338 49.9893 102.219 50.0213 102.066 50.0533C101.914 50.0888 101.72 50.1065 101.486 50.1065C101.131 50.1065 100.783 50.0302 100.442 49.8775C100.104 49.7248 99.824 49.4922 99.6002 49.1797C99.3801 48.8672 99.27 48.473 99.27 47.9972V39.858ZM109.321 46.6548V41.8182H110.579V50H109.321V48.6151H109.236C109.044 49.0305 108.746 49.3839 108.341 49.6751C107.937 49.9627 107.425 50.1065 106.807 50.1065C106.296 50.1065 105.841 49.9947 105.444 49.771C105.046 49.5437 104.733 49.2028 104.506 48.7482C104.279 48.2901 104.165 47.7131 104.165 47.017V41.8182H105.422V46.9318C105.422 47.5284 105.589 48.0043 105.923 48.3594C106.26 48.7145 106.69 48.892 107.212 48.892C107.525 48.892 107.842 48.8121 108.166 48.6523C108.492 48.4925 108.766 48.2475 108.986 47.9173C109.21 47.587 109.321 47.1662 109.321 46.6548ZM115.971 50.1705C115.289 50.1705 114.687 49.9982 114.165 49.6538C113.643 49.3058 113.234 48.8157 112.94 48.1836C112.645 47.5479 112.498 46.7969 112.498 45.9304C112.498 45.071 112.645 44.3253 112.94 43.6932C113.234 43.0611 113.645 42.5728 114.17 42.2283C114.696 41.8839 115.303 41.7116 115.992 41.7116C116.525 41.7116 116.945 41.8004 117.254 41.978C117.567 42.152 117.805 42.3509 117.968 42.5746C118.135 42.7947 118.265 42.9759 118.357 43.1179H118.463V39.0909H119.721V50H118.506V48.7429H118.357C118.265 48.892 118.133 49.0803 117.963 49.3075C117.792 49.5312 117.549 49.7319 117.233 49.9094C116.917 50.0835 116.496 50.1705 115.971 50.1705ZM116.141 49.0412C116.645 49.0412 117.071 48.9098 117.419 48.647C117.767 48.3807 118.032 48.0131 118.213 47.5444C118.394 47.0721 118.485 46.527 118.485 45.9091C118.485 45.2983 118.396 44.7638 118.218 44.3058C118.041 43.8441 117.778 43.4854 117.43 43.2298C117.082 42.9705 116.652 42.8409 116.141 42.8409C115.608 42.8409 115.164 42.9776 114.809 43.2511C114.458 43.521 114.193 43.8885 114.016 44.3537C113.842 44.8153 113.755 45.3338 113.755 45.9091C113.755 46.4915 113.843 47.0206 114.021 47.4964C114.202 47.9687 114.468 48.3452 114.82 48.6257C115.175 48.9027 115.615 49.0412 116.141 49.0412ZM125.628 50.1705C124.839 50.1705 124.159 49.9964 123.588 49.6484C123.02 49.2969 122.581 48.8068 122.272 48.1783C121.967 47.5462 121.814 46.8111 121.814 45.973C121.814 45.1349 121.967 44.3963 122.272 43.7571C122.581 43.1143 123.011 42.6136 123.561 42.255C124.115 41.8928 124.761 41.7116 125.5 41.7116C125.926 41.7116 126.347 41.7827 126.762 41.9247C127.178 42.0668 127.556 42.2976 127.897 42.6172C128.238 42.9332 128.51 43.3523 128.712 43.8743C128.914 44.3963 129.016 45.0391 129.016 45.8026V46.3352H122.709V45.2486H127.737C127.737 44.7869 127.645 44.375 127.46 44.0128C127.279 43.6506 127.02 43.3647 126.683 43.1552C126.349 42.9457 125.955 42.8409 125.5 42.8409C124.999 42.8409 124.566 42.9652 124.2 43.2138C123.838 43.4588 123.559 43.7784 123.364 44.1726C123.169 44.5668 123.071 44.9893 123.071 45.4403V46.1648C123.071 46.7827 123.178 47.3065 123.391 47.7362C123.607 48.1623 123.907 48.4872 124.291 48.7109C124.674 48.9311 125.12 49.0412 125.628 49.0412C125.958 49.0412 126.256 48.995 126.523 48.9027C126.793 48.8068 127.025 48.6648 127.221 48.4766C127.416 48.2848 127.567 48.0469 127.673 47.7628L128.888 48.1037C128.76 48.5156 128.545 48.8778 128.243 49.1903C127.941 49.4993 127.569 49.7408 127.125 49.9148C126.681 50.0852 126.182 50.1705 125.628 50.1705ZM132.185 45.0781V50H130.928V41.8182H132.142V43.0966H132.249C132.441 42.6811 132.732 42.3473 133.123 42.0952C133.513 41.8395 134.017 41.7116 134.635 41.7116C135.189 41.7116 135.674 41.8253 136.089 42.0526C136.505 42.2763 136.828 42.6172 137.059 43.0753C137.29 43.5298 137.405 44.1051 137.405 44.8011V50H136.148V44.8864C136.148 44.2436 135.981 43.7429 135.647 43.3842C135.314 43.022 134.855 42.8409 134.273 42.8409C133.872 42.8409 133.513 42.9279 133.197 43.1019C132.885 43.2759 132.638 43.5298 132.457 43.8636C132.276 44.1974 132.185 44.6023 132.185 45.0781ZM143.261 41.8182V42.8835H139.021V41.8182H143.261ZM140.256 39.858H141.513V47.6562C141.513 48.0114 141.565 48.2777 141.668 48.4553C141.774 48.6293 141.909 48.7464 142.073 48.8068C142.24 48.8636 142.415 48.892 142.6 48.892C142.739 48.892 142.852 48.8849 142.941 48.8707C143.03 48.853 143.101 48.8388 143.154 48.8281L143.41 49.9574C143.324 49.9893 143.206 50.0213 143.053 50.0533C142.9 50.0888 142.707 50.1065 142.472 50.1065C142.117 50.1065 141.769 50.0302 141.428 49.8775C141.091 49.7248 140.81 49.4922 140.587 49.1797C140.366 48.8672 140.256 48.473 140.256 47.9972V39.858ZM89.321 68V57.0909H93.0071C93.8629 57.0909 94.5625 57.2454 95.1058 57.5543C95.6527 57.8597 96.0575 58.2734 96.3203 58.7955C96.5831 59.3175 96.7145 59.8999 96.7145 60.5426C96.7145 61.1854 96.5831 61.7695 96.3203 62.2951C96.0611 62.8207 95.6598 63.2397 95.1165 63.5522C94.5732 63.8612 93.8771 64.0156 93.0284 64.0156H90.3864V62.8438H92.9858C93.5717 62.8438 94.0423 62.7425 94.3974 62.5401C94.7525 62.3377 95.0099 62.0643 95.1697 61.7198C95.3331 61.3718 95.4148 60.9794 95.4148 60.5426C95.4148 60.1058 95.3331 59.7152 95.1697 59.3707C95.0099 59.0263 94.7507 58.7564 94.392 58.5611C94.0334 58.3622 93.5575 58.2628 92.9645 58.2628H90.642V68H89.321ZM102.015 68.1705C101.226 68.1705 100.546 67.9964 99.9744 67.6484C99.4062 67.2969 98.9677 66.8068 98.6587 66.1783C98.3533 65.5462 98.2006 64.8111 98.2006 63.973C98.2006 63.1349 98.3533 62.3963 98.6587 61.7571C98.9677 61.1143 99.3974 60.6136 99.9478 60.255C100.502 59.8928 101.148 59.7116 101.887 59.7116C102.313 59.7116 102.734 59.7827 103.149 59.9247C103.565 60.0668 103.943 60.2976 104.284 60.6172C104.625 60.9332 104.896 61.3523 105.099 61.8743C105.301 62.3963 105.402 63.0391 105.402 63.8026V64.3352H99.0955V63.2486H104.124C104.124 62.7869 104.032 62.375 103.847 62.0128C103.666 61.6506 103.407 61.3647 103.069 61.1552C102.735 60.9457 102.341 60.8409 101.887 60.8409C101.386 60.8409 100.953 60.9652 100.587 61.2138C100.225 61.4588 99.946 61.7784 99.7507 62.1726C99.5554 62.5668 99.4577 62.9893 99.4577 63.4403V64.1648C99.4577 64.7827 99.5643 65.3065 99.7773 65.7362C99.994 66.1623 100.294 66.4872 100.678 66.7109C101.061 66.9311 101.507 67.0412 102.015 67.0412C102.345 67.0412 102.643 66.995 102.909 66.9027C103.179 66.8068 103.412 66.6648 103.607 66.4766C103.803 66.2848 103.953 66.0469 104.06 65.7628L105.275 66.1037C105.147 66.5156 104.932 66.8778 104.63 67.1903C104.328 67.4993 103.955 67.7408 103.511 67.9148C103.067 68.0852 102.569 68.1705 102.015 68.1705ZM107.315 68V59.8182H108.529V61.054H108.614C108.763 60.6491 109.033 60.3207 109.424 60.0685C109.815 59.8164 110.255 59.6903 110.745 59.6903C110.837 59.6903 110.953 59.6921 111.091 59.6957C111.23 59.6992 111.335 59.7045 111.406 59.7116V60.9901C111.363 60.9794 111.265 60.9634 111.113 60.9421C110.963 60.9173 110.805 60.9048 110.638 60.9048C110.241 60.9048 109.886 60.9883 109.573 61.1552C109.264 61.3185 109.019 61.5458 108.838 61.837C108.661 62.1246 108.572 62.4531 108.572 62.8224V68H107.315ZM117.052 59.8182V60.8835H112.641V59.8182H117.052ZM113.962 68V58.6889C113.962 58.2202 114.072 57.8295 114.293 57.517C114.513 57.2045 114.799 56.9702 115.15 56.8139C115.502 56.6577 115.873 56.5795 116.263 56.5795C116.572 56.5795 116.825 56.6044 117.02 56.6541C117.215 56.7038 117.361 56.75 117.457 56.7926L117.094 57.8793C117.031 57.858 116.942 57.8313 116.828 57.7994C116.718 57.7674 116.572 57.7514 116.391 57.7514C115.976 57.7514 115.676 57.8562 115.491 58.0657C115.31 58.2752 115.219 58.5824 115.219 58.9872V68H113.962ZM121.801 68.1705C121.062 68.1705 120.414 67.9947 119.856 67.6431C119.302 67.2915 118.869 66.7997 118.557 66.1676C118.248 65.5355 118.093 64.7969 118.093 63.9517C118.093 63.0994 118.248 62.3555 118.557 61.7198C118.869 61.0842 119.302 60.5906 119.856 60.239C120.414 59.8874 121.062 59.7116 121.801 59.7116C122.539 59.7116 123.186 59.8874 123.74 60.239C124.297 60.5906 124.73 61.0842 125.039 61.7198C125.352 62.3555 125.508 63.0994 125.508 63.9517C125.508 64.7969 125.352 65.5355 125.039 66.1676C124.73 66.7997 124.297 67.2915 123.74 67.6431C123.186 67.9947 122.539 68.1705 121.801 68.1705ZM121.801 67.0412C122.362 67.0412 122.823 66.8974 123.186 66.6097C123.548 66.3221 123.816 65.9439 123.99 65.4751C124.164 65.0064 124.251 64.4986 124.251 63.9517C124.251 63.4048 124.164 62.8952 123.99 62.4229C123.816 61.9506 123.548 61.5689 123.186 61.2777C122.823 60.9865 122.362 60.8409 121.801 60.8409C121.24 60.8409 120.778 60.9865 120.416 61.2777C120.053 61.5689 119.785 61.9506 119.611 62.4229C119.437 62.8952 119.35 63.4048 119.35 63.9517C119.35 64.4986 119.437 65.0064 119.611 65.4751C119.785 65.9439 120.053 66.3221 120.416 66.6097C120.778 66.8974 121.24 67.0412 121.801 67.0412ZM127.427 68V59.8182H128.641V61.054H128.727C128.876 60.6491 129.146 60.3207 129.536 60.0685C129.927 59.8164 130.367 59.6903 130.857 59.6903C130.95 59.6903 131.065 59.6921 131.204 59.6957C131.342 59.6992 131.447 59.7045 131.518 59.7116V60.9901C131.475 60.9794 131.378 60.9634 131.225 60.9421C131.076 60.9173 130.918 60.9048 130.751 60.9048C130.353 60.9048 129.998 60.9883 129.685 61.1552C129.377 61.3185 129.131 61.5458 128.95 61.837C128.773 62.1246 128.684 62.4531 128.684 62.8224V68H127.427ZM133.008 68V59.8182H134.222V61.0966H134.329C134.499 60.6598 134.775 60.3207 135.155 60.0792C135.535 59.8342 135.991 59.7116 136.524 59.7116C137.063 59.7116 137.513 59.8342 137.871 60.0792C138.233 60.3207 138.516 60.6598 138.718 61.0966H138.803C139.013 60.674 139.327 60.3384 139.746 60.0898C140.165 59.8377 140.668 59.7116 141.254 59.7116C141.985 59.7116 142.584 59.9407 143.049 60.3988C143.514 60.8533 143.747 61.5618 143.747 62.5241V68H142.49V62.5241C142.49 61.9205 142.324 61.489 141.994 61.2298C141.664 60.9705 141.275 60.8409 140.828 60.8409C140.252 60.8409 139.807 61.0149 139.491 61.3629C139.175 61.7074 139.017 62.1442 139.017 62.6733V68H137.738V62.3963C137.738 61.9311 137.587 61.5565 137.285 61.2724C136.983 60.9847 136.595 60.8409 136.119 60.8409C135.792 60.8409 135.487 60.9279 135.203 61.1019C134.922 61.2759 134.695 61.5174 134.521 61.8263C134.35 62.1317 134.265 62.4851 134.265 62.8864V68H133.008ZM148.453 68.1918C147.934 68.1918 147.464 68.0941 147.041 67.8988C146.619 67.6999 146.283 67.4141 146.034 67.0412C145.786 66.6648 145.662 66.2102 145.662 65.6776C145.662 65.2088 145.754 64.8288 145.939 64.5376C146.123 64.2429 146.37 64.0121 146.679 63.8452C146.988 63.6783 147.329 63.554 147.702 63.4723C148.078 63.3871 148.456 63.3196 148.836 63.2699C149.333 63.206 149.737 63.158 150.045 63.1261C150.358 63.0906 150.585 63.032 150.727 62.9503C150.873 62.8686 150.946 62.7266 150.946 62.5241V62.4815C150.946 61.956 150.802 61.5476 150.514 61.2564C150.23 60.9652 149.799 60.8196 149.22 60.8196C148.62 60.8196 148.149 60.951 147.808 61.2138C147.467 61.4766 147.228 61.7571 147.089 62.0554L145.896 61.6293C146.109 61.1321 146.393 60.745 146.748 60.468C147.107 60.1875 147.498 59.9922 147.92 59.8821C148.346 59.7685 148.765 59.7116 149.177 59.7116C149.44 59.7116 149.742 59.7436 150.083 59.8075C150.427 59.8679 150.759 59.994 151.079 60.1857C151.402 60.3775 151.67 60.6669 151.883 61.054C152.096 61.4411 152.203 61.9595 152.203 62.6094V68H150.946V66.892H150.882C150.797 67.0696 150.654 67.2596 150.456 67.462C150.257 67.6644 149.992 67.8366 149.662 67.9787C149.332 68.1207 148.929 68.1918 148.453 68.1918ZM148.645 67.0625C149.142 67.0625 149.561 66.9648 149.902 66.7695C150.246 66.5742 150.505 66.3221 150.679 66.0131C150.857 65.7042 150.946 65.3793 150.946 65.0384V63.8878C150.892 63.9517 150.775 64.0103 150.594 64.0636C150.417 64.1133 150.211 64.1577 149.976 64.1967C149.745 64.2322 149.52 64.2642 149.3 64.2926C149.083 64.3175 148.907 64.3388 148.772 64.3565C148.446 64.3991 148.14 64.4684 147.856 64.5643C147.576 64.6566 147.348 64.7969 147.174 64.9851C147.004 65.1697 146.919 65.4219 146.919 65.7415C146.919 66.1783 147.08 66.5085 147.403 66.7322C147.73 66.9524 148.144 67.0625 148.645 67.0625ZM155.754 63.0781V68H154.497V59.8182H155.712V61.0966H155.818C156.01 60.6811 156.301 60.3473 156.692 60.0952C157.082 59.8395 157.587 59.7116 158.205 59.7116C158.759 59.7116 159.243 59.8253 159.659 60.0526C160.074 60.2763 160.397 60.6172 160.628 61.0753C160.859 61.5298 160.975 62.1051 160.975 62.8011V68H159.717V62.8864C159.717 62.2436 159.551 61.7429 159.217 61.3842C158.883 61.022 158.425 60.8409 157.842 60.8409C157.441 60.8409 157.082 60.9279 156.766 61.1019C156.454 61.2759 156.207 61.5298 156.026 61.8636C155.845 62.1974 155.754 62.6023 155.754 63.0781ZM166.596 68.1705C165.828 68.1705 165.168 67.9893 164.614 67.6271C164.06 67.2649 163.634 66.766 163.336 66.1303C163.037 65.4947 162.888 64.7685 162.888 63.9517C162.888 63.1207 163.041 62.3874 163.346 61.7518C163.655 61.1126 164.085 60.6136 164.635 60.255C165.189 59.8928 165.836 59.7116 166.574 59.7116C167.15 59.7116 167.668 59.8182 168.13 60.0312C168.591 60.2443 168.969 60.5426 169.264 60.9261C169.559 61.3097 169.742 61.7571 169.813 62.2685H168.556C168.46 61.8956 168.247 61.5653 167.917 61.2777C167.59 60.9865 167.15 60.8409 166.596 60.8409C166.105 60.8409 165.676 60.9687 165.306 61.2244C164.941 61.4766 164.655 61.8335 164.449 62.2951C164.246 62.7532 164.145 63.2912 164.145 63.9091C164.145 64.5412 164.245 65.0916 164.444 65.5604C164.646 66.0291 164.93 66.3931 165.296 66.6523C165.665 66.9116 166.098 67.0412 166.596 67.0412C166.922 67.0412 167.219 66.9844 167.485 66.8707C167.751 66.7571 167.977 66.5938 168.162 66.3807C168.346 66.1676 168.478 65.9119 168.556 65.6136H169.813C169.742 66.0966 169.566 66.5316 169.286 66.9187C169.009 67.3022 168.641 67.6076 168.183 67.8349C167.728 68.0586 167.199 68.1705 166.596 68.1705ZM175.081 68.1705C174.293 68.1705 173.613 67.9964 173.041 67.6484C172.473 67.2969 172.034 66.8068 171.725 66.1783C171.42 65.5462 171.267 64.8111 171.267 63.973C171.267 63.1349 171.42 62.3963 171.725 61.7571C172.034 61.1143 172.464 60.6136 173.014 60.255C173.568 59.8928 174.214 59.7116 174.953 59.7116C175.379 59.7116 175.8 59.7827 176.216 59.9247C176.631 60.0668 177.009 60.2976 177.35 60.6172C177.691 60.9332 177.963 61.3523 178.165 61.8743C178.368 62.3963 178.469 63.0391 178.469 63.8026V64.3352H172.162V63.2486H177.19C177.19 62.7869 177.098 62.375 176.913 62.0128C176.732 61.6506 176.473 61.3647 176.136 61.1552C175.802 60.9457 175.408 60.8409 174.953 60.8409C174.452 60.8409 174.019 60.9652 173.653 61.2138C173.291 61.4588 173.012 61.7784 172.817 62.1726C172.622 62.5668 172.524 62.9893 172.524 63.4403V64.1648C172.524 64.7827 172.631 65.3065 172.844 65.7362C173.06 66.1623 173.36 66.4872 173.744 66.7109C174.127 66.9311 174.573 67.0412 175.081 67.0412C175.411 67.0412 175.71 66.995 175.976 66.9027C176.246 66.8068 176.478 66.6648 176.674 66.4766C176.869 66.2848 177.02 66.0469 177.126 65.7628L178.341 66.1037C178.213 66.5156 177.998 66.8778 177.696 67.1903C177.395 67.4993 177.022 67.7408 176.578 67.9148C176.134 68.0852 175.635 68.1705 175.081 68.1705ZM89.321 86V75.0909H93.0071C93.8594 75.0909 94.5589 75.2365 95.1058 75.5277C95.6527 75.8153 96.0575 76.2113 96.3203 76.7156C96.5831 77.2198 96.7145 77.7933 96.7145 78.4361C96.7145 79.0788 96.5831 79.6488 96.3203 80.146C96.0575 80.6431 95.6545 81.0337 95.1112 81.3178C94.5678 81.5984 93.8736 81.7386 93.0284 81.7386H90.0455V80.5455H92.9858C93.5682 80.5455 94.0369 80.4602 94.392 80.2898C94.7507 80.1193 95.0099 79.8778 95.1697 79.5653C95.3331 79.2493 95.4148 78.8729 95.4148 78.4361C95.4148 77.9993 95.3331 77.6175 95.1697 77.2908C95.0064 76.9641 94.7454 76.712 94.3867 76.5344C94.0281 76.3533 93.554 76.2628 92.9645 76.2628H90.642V86H89.321ZM94.456 81.0994L97.1406 86H95.6065L92.9645 81.0994H94.456ZM102.088 86.1705C101.299 86.1705 100.619 85.9964 100.048 85.6484C99.4795 85.2969 99.0409 84.8068 98.732 84.1783C98.4266 83.5462 98.2739 82.8111 98.2739 81.973C98.2739 81.1349 98.4266 80.3963 98.732 79.7571C99.0409 79.1143 99.4706 78.6136 100.021 78.255C100.575 77.8928 101.221 77.7116 101.96 77.7116C102.386 77.7116 102.807 77.7827 103.222 77.9247C103.638 78.0668 104.016 78.2976 104.357 78.6172C104.698 78.9332 104.97 79.3523 105.172 79.8743C105.374 80.3963 105.476 81.0391 105.476 81.8026V82.3352H99.1688V81.2486H104.197C104.197 80.7869 104.105 80.375 103.92 80.0128C103.739 79.6506 103.48 79.3647 103.142 79.1552C102.809 78.9457 102.415 78.8409 101.96 78.8409C101.459 78.8409 101.026 78.9652 100.66 79.2138C100.298 79.4588 100.019 79.7784 99.824 80.1726C99.6286 80.5668 99.531 80.9893 99.531 81.4403V82.1648C99.531 82.7827 99.6375 83.3065 99.8506 83.7362C100.067 84.1623 100.367 84.4872 100.751 84.7109C101.134 84.9311 101.58 85.0412 102.088 85.0412C102.418 85.0412 102.716 84.995 102.983 84.9027C103.253 84.8068 103.485 84.6648 103.68 84.4766C103.876 84.2848 104.027 84.0469 104.133 83.7628L105.348 84.1037C105.22 84.5156 105.005 84.8778 104.703 85.1903C104.401 85.4993 104.028 85.7408 103.585 85.9148C103.141 86.0852 102.642 86.1705 102.088 86.1705ZM107.388 89.0682V77.8182H108.602V79.1179H108.752C108.844 78.9759 108.972 78.7947 109.135 78.5746C109.302 78.3509 109.54 78.152 109.849 77.978C110.161 77.8004 110.584 77.7116 111.117 77.7116C111.805 77.7116 112.413 77.8839 112.938 78.2283C113.464 78.5728 113.874 79.0611 114.169 79.6932C114.464 80.3253 114.611 81.071 114.611 81.9304C114.611 82.7969 114.464 83.5479 114.169 84.1836C113.874 84.8157 113.466 85.3058 112.944 85.6538C112.422 85.9982 111.82 86.1705 111.138 86.1705C110.612 86.1705 110.191 86.0835 109.875 85.9094C109.559 85.7319 109.316 85.5312 109.146 85.3075C108.975 85.0803 108.844 84.892 108.752 84.7429H108.645V89.0682H107.388ZM108.624 81.9091C108.624 82.527 108.714 83.0721 108.895 83.5444C109.076 84.0131 109.341 84.3807 109.689 84.647C110.037 84.9098 110.463 85.0412 110.967 85.0412C111.493 85.0412 111.932 84.9027 112.283 84.6257C112.638 84.3452 112.905 83.9687 113.082 83.4964C113.263 83.0206 113.354 82.4915 113.354 81.9091C113.354 81.3338 113.265 80.8153 113.087 80.3537C112.913 79.8885 112.649 79.521 112.294 79.2511C111.942 78.9776 111.5 78.8409 110.967 78.8409C110.456 78.8409 110.026 78.9705 109.678 79.2298C109.33 79.4854 109.068 79.8441 108.89 80.3058C108.712 80.7638 108.624 81.2983 108.624 81.9091ZM119.852 86.1705C119.114 86.1705 118.466 85.9947 117.908 85.6431C117.354 85.2915 116.921 84.7997 116.608 84.1676C116.299 83.5355 116.145 82.7969 116.145 81.9517C116.145 81.0994 116.299 80.3555 116.608 79.7198C116.921 79.0842 117.354 78.5906 117.908 78.239C118.466 77.8874 119.114 77.7116 119.852 77.7116C120.591 77.7116 121.237 77.8874 121.791 78.239C122.349 78.5906 122.782 79.0842 123.091 79.7198C123.403 80.3555 123.56 81.0994 123.56 81.9517C123.56 82.7969 123.403 83.5355 123.091 84.1676C122.782 84.7997 122.349 85.2915 121.791 85.6431C121.237 85.9947 120.591 86.1705 119.852 86.1705ZM119.852 85.0412C120.413 85.0412 120.875 84.8974 121.237 84.6097C121.6 84.3221 121.868 83.9439 122.042 83.4751C122.216 83.0064 122.303 82.4986 122.303 81.9517C122.303 81.4048 122.216 80.8952 122.042 80.4229C121.868 79.9506 121.6 79.5689 121.237 79.2777C120.875 78.9865 120.413 78.8409 119.852 78.8409C119.291 78.8409 118.83 78.9865 118.467 79.2777C118.105 79.5689 117.837 79.9506 117.663 80.4229C117.489 80.8952 117.402 81.4048 117.402 81.9517C117.402 82.4986 117.489 83.0064 117.663 83.4751C117.837 83.9439 118.105 84.3221 118.467 84.6097C118.83 84.8974 119.291 85.0412 119.852 85.0412ZM125.479 86V77.8182H126.693V79.054H126.778C126.928 78.6491 127.197 78.3207 127.588 78.0685C127.979 77.8164 128.419 77.6903 128.909 77.6903C129.001 77.6903 129.117 77.6921 129.255 77.6957C129.394 77.6992 129.499 77.7045 129.57 77.7116V78.9901C129.527 78.9794 129.429 78.9634 129.277 78.9421C129.127 78.9173 128.969 78.9048 128.803 78.9048C128.405 78.9048 128.05 78.9883 127.737 79.1552C127.428 79.3185 127.183 79.5458 127.002 79.837C126.825 80.1246 126.736 80.4531 126.736 80.8224V86H125.479ZM135.131 77.8182V78.8835H130.891V77.8182H135.131ZM132.126 75.858H133.384V83.6562C133.384 84.0114 133.435 84.2777 133.538 84.4553C133.645 84.6293 133.779 84.7464 133.943 84.8068C134.11 84.8636 134.286 84.892 134.47 84.892C134.609 84.892 134.722 84.8849 134.811 84.8707C134.9 84.853 134.971 84.8388 135.024 84.8281L135.28 85.9574C135.195 85.9893 135.076 86.0213 134.923 86.0533C134.77 86.0888 134.577 86.1065 134.342 86.1065C133.987 86.1065 133.639 86.0302 133.298 85.8775C132.961 85.7248 132.68 85.4922 132.457 85.1797C132.237 84.8672 132.126 84.473 132.126 83.9972V75.858Z" fill="black"/>
<path d="M61.7685 138H60.3835L64.3892 127.091H65.7528L69.7585 138H68.3736L65.1136 128.817H65.0284L61.7685 138ZM62.2798 133.739H67.8622V134.911H62.2798V133.739ZM75.6765 138V127.091H79.4904C80.2504 127.091 80.8771 127.222 81.3707 127.485C81.8643 127.744 82.2319 128.094 82.4734 128.534C82.7148 128.971 82.8356 129.456 82.8356 129.989C82.8356 130.457 82.7521 130.844 82.5852 131.15C82.4219 131.455 82.2053 131.697 81.9354 131.874C81.669 132.052 81.3796 132.183 81.0671 132.268V132.375C81.4009 132.396 81.7365 132.513 82.0739 132.727C82.4112 132.94 82.6935 133.245 82.9208 133.643C83.1481 134.04 83.2617 134.527 83.2617 135.102C83.2617 135.649 83.1374 136.141 82.8888 136.578C82.6403 137.015 82.2479 137.361 81.7116 137.616C81.1754 137.872 80.4776 138 79.6183 138H75.6765ZM76.9975 136.828H79.6183C80.4812 136.828 81.0938 136.661 81.456 136.327C81.8217 135.99 82.0046 135.582 82.0046 135.102C82.0046 134.733 81.9105 134.392 81.7223 134.08C81.5341 133.763 81.266 133.511 80.918 133.323C80.57 133.131 80.158 133.036 79.6822 133.036H76.9975V136.828ZM76.9975 131.885H79.4478C79.8455 131.885 80.2042 131.807 80.5238 131.651C80.8469 131.494 81.1026 131.274 81.2908 130.99C81.4826 130.706 81.5785 130.372 81.5785 129.989C81.5785 129.509 81.4116 129.103 81.0778 128.769C80.744 128.431 80.2148 128.263 79.4904 128.263H76.9975V131.885ZM98.4295 130.5H97.1085C97.0304 130.12 96.8936 129.786 96.6983 129.499C96.5066 129.211 96.2722 128.969 95.9952 128.774C95.7218 128.575 95.4181 128.426 95.0843 128.327C94.7505 128.227 94.4025 128.178 94.0403 128.178C93.3798 128.178 92.7814 128.344 92.2452 128.678C91.7125 129.012 91.2882 129.504 90.9721 130.154C90.6596 130.804 90.5034 131.601 90.5034 132.545C90.5034 133.49 90.6596 134.287 90.9721 134.937C91.2882 135.587 91.7125 136.079 92.2452 136.413C92.7814 136.746 93.3798 136.913 94.0403 136.913C94.4025 136.913 94.7505 136.864 95.0843 136.764C95.4181 136.665 95.7218 136.517 95.9952 136.322C96.2722 136.123 96.5066 135.88 96.6983 135.592C96.8936 135.301 97.0304 134.967 97.1085 134.591H98.4295C98.3301 135.148 98.149 135.647 97.8862 136.088C97.6234 136.528 97.2967 136.903 96.9061 137.212C96.5154 137.517 96.0769 137.75 95.5904 137.909C95.1074 138.069 94.5907 138.149 94.0403 138.149C93.1099 138.149 92.2825 137.922 91.5581 137.467C90.8336 137.013 90.2637 136.366 89.8482 135.528C89.4327 134.69 89.225 133.696 89.225 132.545C89.225 131.395 89.4327 130.401 89.8482 129.562C90.2637 128.724 90.8336 128.078 91.5581 127.624C92.2825 127.169 93.1099 126.942 94.0403 126.942C94.5907 126.942 95.1074 127.022 95.5904 127.181C96.0769 127.341 96.5154 127.576 96.9061 127.885C97.2967 128.19 97.6234 128.563 97.8862 129.003C98.149 129.44 98.3301 129.939 98.4295 130.5ZM108.149 138H104.783V127.091H108.299C109.357 127.091 110.262 127.309 111.015 127.746C111.768 128.179 112.345 128.803 112.746 129.616C113.148 130.425 113.348 131.395 113.348 132.524C113.348 133.661 113.146 134.639 112.741 135.459C112.336 136.276 111.747 136.904 110.973 137.345C110.198 137.782 109.257 138 108.149 138ZM106.104 136.828H108.064C108.966 136.828 109.714 136.654 110.307 136.306C110.9 135.958 111.342 135.463 111.633 134.82C111.924 134.177 112.07 133.412 112.07 132.524C112.07 131.643 111.926 130.885 111.638 130.25C111.351 129.61 110.921 129.12 110.349 128.779C109.778 128.435 109.066 128.263 108.213 128.263H106.104V136.828ZM119.783 138V127.091H126.367V128.263H121.104V131.949H126.026V133.121H121.104V136.828H126.452V138H119.783Z" fill="black"/>
<rect x="312" width="10" height="178" fill="black"/>
</svg>
